<?xml version="1.0" encoding="utf-8"?>
<!-- Generator: Adobe Illustrator 19.0.0, SVG Export Plug-In . SVG Version: 6.00 Build 0)  -->
<svg version="1.1" id="圖層_1" xmlns="http://www.w3.org/2000/svg" xmlns:xlink="http://www.w3.org/1999/xlink" x="0px" y="0px"
	 viewBox="0 0 14.5 16.9" style="enable-background:new 0 0 14.5 16.9;" xml:space="preserve">
<style type="text/css">
	.st0{fill-rule:evenodd;clip-rule:evenodd;fill:#2B945F;}
	.st1{fill-rule:evenodd;clip-rule:evenodd;fill:#4D4B4B;}
</style>
<g id="XMLID_200_">
	<path id="XMLID_201_" class="st0" d="M14.5,0.2c-0.2,1.3-0.8,2.3-1.7,3c-0.9,0.7-2,1-3.6,1c-2.9,0-6.3,0-9.2,0
		c0.4-2.3,1.9-3.6,4.2-4c0.7-0.1,1.7,0,2.6,0C9.4,0.2,12.1,0.2,14.5,0.2z"/>
	<path id="XMLID_202_" class="st1" d="M10.2,16.4c0-1.3,0-2.7,0-4.1c0-1.4-0.1-2.7,0.1-4c0.2-1.1,0.7-2.1,1.3-2.8
		c0.7-0.7,1.6-1.2,2.7-1.4c0,0,0.1,0,0.1,0c0.1,0,0.1,0,0.1,0.1c0.1,0.4,0,1.2,0,1.7c0,0.7,0,1.3,0,1.9c0,1.3,0.1,2.6,0,3.8
		c-0.1,1.3-0.7,2.5-1.3,3.2C12.4,15.7,11.6,16.2,10.2,16.4z"/>
	<path id="XMLID_203_" class="st0" d="M9.9,5.4C9.8,6.4,9.3,7.2,8.7,7.8c-0.6,0.5-1.6,1-2.6,1c-1.9,0.1-4-0.1-6,0
		c0.2-1,0.6-1.8,1.2-2.3c0.6-0.6,1.5-1,2.5-1.1c0.5,0,1,0,1.6,0C6.8,5.4,8.4,5.4,9.9,5.4z"/>
	<path id="XMLID_204_" class="st1" d="M5.2,10c1.1,0.1,2,0.6,2.6,1.2c0.6,0.6,1.1,1.5,1.2,2.6c0.1,0.8,0,1.7,0,2.7
		c-1.6-0.2-2.8-1-3.4-2.3c-0.2-0.4-0.4-0.9-0.4-1.5C5,11.9,5.2,11,5.2,10C5.1,10,5.2,9.9,5.2,10z"/>
	<path id="XMLID_205_" class="st0" d="M0.1,10c1.3,0,2.6,0,3.8,0c0,2.1,0,4.3,0,6.4c-1.5-0.2-2.4-1-3.1-2C0.2,13.3-0.1,11.9,0.1,10
		C0,10,0,10,0.1,10z"/>
</g>
</svg>
