<?xml version="1.0" encoding="utf-8"?>
<!-- Generator: Adobe Illustrator 19.0.0, SVG Export Plug-In . SVG Version: 6.00 Build 0)  -->
<svg version="1.1" id="圖層_1" xmlns="http://www.w3.org/2000/svg" xmlns:xlink="http://www.w3.org/1999/xlink" x="0px" y="0px"
	 viewBox="0 0 104.3 16.9" style="enable-background:new 0 0 104.3 16.9;" xml:space="preserve">
<style type="text/css">
	.st0{fill-rule:evenodd;clip-rule:evenodd;fill:#2B945F;}
	.st1{fill-rule:evenodd;clip-rule:evenodd;fill:#4D4B4B;}
	.st2{fill:#4B4B4B;}
</style>
<g id="XMLID_200_">
	<path id="XMLID_201_" class="st0" d="M14.5,0.2c-0.2,1.3-0.8,2.3-1.7,3c-0.9,0.7-2,1-3.6,1c-2.9,0-6.3,0-9.2,0
		c0.4-2.3,1.9-3.6,4.2-4c0.7-0.1,1.7,0,2.6,0C9.4,0.2,12.1,0.2,14.5,0.2z"/>
	<path id="XMLID_202_" class="st1" d="M10.2,16.4c0-1.3,0-2.7,0-4.1c0-1.4-0.1-2.7,0.1-4c0.2-1.1,0.7-2.1,1.3-2.8
		c0.7-0.7,1.6-1.2,2.7-1.4c0,0,0.1,0,0.1,0c0.1,0,0.1,0,0.1,0.1c0.1,0.4,0,1.2,0,1.7c0,0.7,0,1.3,0,1.9c0,1.3,0.1,2.6,0,3.8
		c-0.1,1.3-0.7,2.5-1.3,3.2C12.4,15.7,11.6,16.2,10.2,16.4z"/>
	<path id="XMLID_203_" class="st0" d="M9.9,5.4C9.8,6.4,9.3,7.2,8.7,7.8c-0.6,0.5-1.6,1-2.6,1c-1.9,0.1-4-0.1-6,0
		c0.2-1,0.6-1.8,1.2-2.3c0.6-0.6,1.5-1,2.5-1.1c0.5,0,1,0,1.6,0C6.8,5.4,8.4,5.4,9.9,5.4z"/>
	<path id="XMLID_204_" class="st1" d="M5.2,10c1.1,0.1,2,0.6,2.6,1.2c0.6,0.6,1.1,1.5,1.2,2.6c0.1,0.8,0,1.7,0,2.7
		c-1.6-0.2-2.8-1-3.4-2.3c-0.2-0.4-0.4-0.9-0.4-1.5C5,11.9,5.2,11,5.2,10C5.1,10,5.2,9.9,5.2,10z"/>
	<path id="XMLID_205_" class="st0" d="M0.1,10c1.3,0,2.6,0,3.8,0c0,2.1,0,4.3,0,6.4c-1.5-0.2-2.4-1-3.1-2C0.2,13.3-0.1,11.9,0.1,10
		C0,10,0,10,0.1,10z"/>
</g>
<g id="XMLID_119_">
	<path id="XMLID_120_" class="st2" d="M20.3,6.1l-0.4,0.6c-0.2-0.3-0.5-0.5-0.8-0.8v2.2h-0.7V6.2c-0.4,0.6-0.9,1-1.4,1.4L16.6,7
		c0.7-0.5,1.3-1.1,1.7-1.8h-1.5V4.5h1.6V3.7h0.7v0.8h1.1v0.7h-1.1C19.5,5.5,19.9,5.8,20.3,6.1z M24,3.3L23.6,4
		c-0.7-0.5-1.7-1-2.9-1.4v1.5H20V2.4c-0.9,0.7-1.9,1.3-2.9,1.6l-0.3-0.7c1.1-0.3,2-0.8,2.8-1.5h-2.7V1.2H20V0.6h0.8v0.7h3.1v0.7
		h-3.1C22.1,2.4,23.2,2.9,24,3.3z M24.2,6.9l-0.4,0.7c-0.6-0.5-1.1-1-1.4-1.5v2h-0.8v-2c-0.4,0.6-0.8,1.1-1.4,1.5L19.9,7
		c0.8-0.5,1.4-1.1,1.7-1.8h-1.1V4.5h1.2V3.7h0.8v0.8H24v0.7h-1.5C22.9,5.8,23.4,6.4,24.2,6.9z"/>
	<path id="XMLID_124_" class="st2" d="M27.3,2.6c-0.2,0.3-0.3,0.6-0.4,0.8l-0.2,0.3v4.4H26V4.7c-0.2,0.2-0.4,0.4-0.5,0.6l-0.4-0.7
		c0.6-0.6,1.1-1.4,1.5-2.3L27.3,2.6z M27.2,0.8c-0.5,0.9-1,1.6-1.6,2l-0.4-0.7c0.5-0.5,1-1,1.4-1.7L27.2,0.8z M28.4,6
		c-0.3,0.8-0.5,1.4-0.8,1.9L27,7.5c0.3-0.5,0.5-1,0.8-1.7L28.4,6z M32.7,5.4h-5.6V4.8h5.6V5.4z M32.5,1.8h-2.2v0.5h2v2h-4.7v-2h2
		V1.8h-2.2V1.2h2.2V0.6h0.8v0.6h2.2V1.8z M28.9,3.7V3h-0.6v0.8H28.9z M31.5,7c-0.1,0.4-0.2,0.7-0.3,0.9C31.1,8,30.9,8,30.6,8
		c-0.5,0-0.9,0-1.2,0c-0.3,0-0.5-0.1-0.6-0.2s-0.2-0.3-0.2-0.6V5.9h0.7v1.3c0,0.1,0,0.1,0.1,0.2s0.2,0,0.5,0c0.4,0,0.6,0,0.7-0.1
		s0.1-0.3,0.2-0.6L31.5,7z M30.9,6.3l-0.5,0.4c-0.2-0.3-0.5-0.6-0.8-0.8l0.5-0.4C30.4,5.8,30.6,6,30.9,6.3z M30.3,3.7V3h-0.6v0.8
		H30.3z M31.6,3.7V3H31v0.8H31.6z M32.9,7.4l-0.7,0.4c-0.2-0.5-0.5-1.1-0.9-1.7L32,5.7C32.4,6.4,32.7,6.9,32.9,7.4z"/>
	<path id="XMLID_136_" class="st2" d="M34.9,6.1c-0.1,0.7-0.2,1.4-0.4,2l-0.7-0.3c0.2-0.6,0.3-1.3,0.4-1.9L34.9,6.1z M36.8,1.9
		c-0.6,1.2-1.2,2.2-1.9,3c0.4-0.1,0.7-0.1,1-0.2c-0.1-0.2-0.1-0.4-0.2-0.5L36.3,4c0.2,0.4,0.3,0.9,0.5,1.5l-0.6,0.2
		c0-0.1,0-0.2-0.1-0.4c-0.7,0.2-1.4,0.3-2,0.4l-0.2-0.6c0.5-0.5,1-1.1,1.4-1.8c-0.4,0.1-0.8,0.1-1.1,0.2l-0.1-0.7
		c0.5-0.6,0.9-1.4,1.3-2.3l0.7,0.3c-0.3,0.8-0.7,1.4-1,1.9c0.3,0,0.5-0.1,0.8-0.1c0.2-0.3,0.3-0.6,0.5-1L36.8,1.9z M35.9,7.7
		l-0.7,0.1c0-0.6-0.1-1.2-0.2-1.7L35.7,6C35.8,6.5,35.9,7.1,35.9,7.7z M36.7,7.4l-0.6,0.1C36.1,6.9,36,6.4,35.9,6l0.6-0.1
		C36.6,6.4,36.7,6.9,36.7,7.4z M41.1,7.4c0,0.3-0.1,0.4-0.2,0.6s-0.4,0.2-0.8,0.2c-0.1,0-0.3,0-0.4,0l-0.3-0.7c0.3,0,0.6,0,0.9,0
		c0,0,0.1,0,0.1-0.1c0,0,0.1-0.1,0.1-0.1V1.5h-2.8v6.6h-0.7V0.7h4.2V7.4z M40.2,3.5h-2.3V2.8h0.4c-0.1-0.3-0.2-0.7-0.3-1l0.7-0.2
		c0.2,0.4,0.3,0.7,0.4,1.1h0.2c0.1-0.3,0.3-0.7,0.4-1.1l0.7,0.2c-0.1,0.3-0.2,0.6-0.3,0.9h0.4V3.5z M40.2,5h-1.4v1.1
		c0,0,0,0.1,0.1,0.1c0,0,0.1,0,0.1,0h1.1v0.7h-1.3c-0.4,0-0.6-0.2-0.6-0.6V5h-0.3V4.3h0.9c-0.1-0.2-0.1-0.4-0.2-0.6l0.7-0.1
		c0.1,0.2,0.2,0.5,0.3,0.7h0.7V5z"/>
	<path id="XMLID_144_" class="st2" d="M45.8,2.4H45l0.5,0.4c-0.1,0.9-0.2,2.1-0.4,3.5c0.1,0,0.3-0.1,0.4-0.1l0,0.7
		c-1.2,0.4-2.1,0.7-2.9,0.9l-0.2-0.7c0.2,0,0.4-0.1,0.6-0.2c0-1.2-0.1-2.6-0.3-4.2l0.5-0.4h-0.8V1.7h1.3c0-0.1-0.1-0.5-0.3-1
		l0.7-0.3c0.1,0.3,0.3,0.7,0.4,1.2h1.2V2.4z M44.8,2.4h-1.4c0.2,1.4,0.3,2.9,0.3,4.3l0.6-0.2C44.6,5.1,44.8,3.7,44.8,2.4z M49.9,2.7
		h-2.2v1.7h1.8v3.7h-0.8V7.6h-2.2v0.5h-0.8V4.4H47V0.6h0.8V2h2.2V2.7z M48.8,6.9V5.1h-2.2v1.8H48.8z"/>
	<path id="XMLID_149_" class="st2" d="M54.1,2.1h-3V1.4h1.2c-0.1-0.2-0.2-0.4-0.3-0.6l0.8-0.2C52.8,0.8,52.9,1,53,1.4h1V2.1z
		 M53.9,3.3h-2.6V2.6h2.6V3.3z M53.9,4.6h-2.6V3.9h2.6V4.6z M53.9,7.9h-0.7V7.5H52v0.6h-0.7v-3h2.6V7.9z M53.1,6.9v-1H52v1H53.1z
		 M58.7,7.4l-0.4,0.7c-0.7-0.2-1.4-0.6-2-1c-0.5,0.4-1.2,0.8-1.9,1L54,7.5c0.7-0.2,1.3-0.5,1.8-0.9c-0.5-0.5-0.8-1.1-1.1-1.8h-0.4
		V4.1h3.8v0.7c-0.4,0.7-0.7,1.3-1.2,1.8C57.4,7,58,7.3,58.7,7.4z M58.6,3.6h-1.1c-0.1,0-0.3-0.1-0.4-0.2S56.9,3.2,56.9,3V1.5h-1.2V2
		c0,0.4-0.1,0.7-0.3,1.1c-0.2,0.4-0.4,0.6-0.8,0.8l-0.5-0.5C54.7,3.1,55,2.6,55,1.8v-1h2.7v1.9c0,0.1,0,0.1,0.1,0.2s0.1,0.1,0.2,0.1
		h0.7V3.6z M57.2,4.9h-1.7c0.2,0.5,0.5,1,0.8,1.3C56.7,5.8,57,5.4,57.2,4.9z"/>
	<path id="XMLID_158_" class="st2" d="M63.2,2h-3.6V1.4h1.4c-0.1-0.2-0.2-0.5-0.3-0.7l0.8-0.1c0.1,0.2,0.3,0.5,0.4,0.8h1.3V2z
		 M62.8,3.3H60V2.6h2.9V3.3z M62.8,4.6H60V3.9h2.9V4.6z M62.9,8h-0.7V7.5h-1.3v0.5H60v-3h2.8V8z M62.1,6.9v-1h-1.3v1H62.1z
		 M67.2,3.7h-1.6v4.4h-0.8V3.7h-1.5V3h1.5V0.6h0.8V3h1.6V3.7z"/>
	<path id="XMLID_165_" class="st2" d="M75.8,2.1h-4.2c-0.1,0.2-0.3,0.5-0.4,0.7h4v4.6c0,0.2-0.1,0.3-0.2,0.4
		c-0.1,0.1-0.3,0.2-0.5,0.2c-0.2,0-0.4,0-0.6,0c-0.3,0-0.6,0-0.8,0l-0.3-0.8c0.4,0,0.8,0,1.4,0c0.1,0,0.2-0.1,0.2-0.2V6.4h-3.8
		c-0.1,0.6-0.4,1.2-0.9,1.7l-0.7-0.4c0.6-0.7,0.9-1.3,0.9-1.9V4.4c-0.4,0.4-0.8,0.7-1.1,1l-0.6-0.6c1-0.7,1.9-1.6,2.5-2.6h-2.4V1.4
		h2.8c0.2-0.3,0.3-0.6,0.4-0.9l0.8,0.1c-0.1,0.2-0.2,0.5-0.3,0.7h3.8V2.1z M74.4,4.3V3.6h-3.7v0.7H74.4z M74.4,5.6V5h-3.7v0.7H74.4z
		"/>
	<path id="XMLID_169_" class="st2" d="M79,3.2c0.5,0.7,0.7,1.3,0.7,2c0,0.8-0.4,1.2-1.2,1.2c-0.1,0-0.2,0-0.3,0l-0.2-0.8
		c0.1,0,0.2,0,0.4,0c0.2,0,0.3,0,0.4-0.1C78.9,5.5,79,5.4,79,5.2c0-0.6-0.3-1.3-0.8-1.9c0.2-0.4,0.4-1,0.6-1.8h-0.9v6.6h-0.7V0.7
		h2.5v0.8C79.4,2.1,79.2,2.7,79,3.2z M84,4.3h-3.1v2.8c0.4-0.1,0.8-0.3,1.3-0.5l0,0.8c-0.8,0.3-1.4,0.6-1.9,0.7L80,7.5
		c0.1-0.1,0.2-0.2,0.2-0.3V0.7H84V4.3z M83.2,2.2V1.4h-2.3v0.8H83.2z M83.2,3.7V2.9h-2.3v0.8H83.2z M84.4,7.5L84,8.2
		c-1.2-0.7-2-1.8-2.4-3.3l0.7-0.2c0.1,0.4,0.2,0.7,0.4,1c0.4-0.3,0.7-0.6,1.1-1l0.6,0.5c-0.4,0.5-0.8,0.9-1.2,1.2
		C83.4,6.8,83.9,7.2,84.4,7.5z"/>
	<path id="XMLID_175_" class="st2" d="M88.7,0.8c-0.6,1.5-1.5,2.8-2.8,3.8L85.4,4c1.2-0.9,2-2,2.5-3.4L88.7,0.8z M92.5,7.7l-0.7,0.5
		c-0.2-0.4-0.3-0.7-0.5-1C90,7.5,88.4,7.8,86.5,8l-0.2-0.7c0.7-0.5,1.6-2,2.6-4.4l0.8,0.2c-0.7,1.6-1.4,2.9-2.2,3.9
		C88.8,7,89.9,6.8,91,6.5c-0.2-0.3-0.5-0.7-0.9-1.3l0.6-0.4C91.4,5.7,92,6.7,92.5,7.7z M93.1,4l-0.5,0.7c-1.1-0.8-1.9-1.9-2.4-3.3
		h-0.7V0.7h1.2C91.2,2.1,92,3.2,93.1,4z"/>
	<path id="XMLID_179_" class="st2" d="M101.3,7.1c0,0.7-0.3,1-1,1c-0.6,0-1,0-1.3,0l-0.2-0.8c0.6,0,1.1,0,1.3,0
		c0.2,0,0.4-0.1,0.4-0.2V1.4h-6.4V0.7h7.2V7.1z M99.9,2.9h-5.6V2.2h5.6V2.9z M99.3,6.6h-4.5V3.7h4.5V6.6z M98.5,5.9V4.4h-3v1.5H98.5
		z"/>
</g>
<g id="XMLID_81_">
	<path id="XMLID_82_" class="st2" d="M16.6,16.1v-5.4h3.7v0.9h-2.6v1.3h2.2v0.9h-2.2v2.3H16.6z"/>
	<path id="XMLID_84_" class="st2" d="M20.9,13.5c0-0.6,0.1-1,0.2-1.4c0.1-0.3,0.3-0.5,0.5-0.7c0.2-0.2,0.4-0.4,0.7-0.5
		c0.3-0.1,0.7-0.2,1.2-0.2c0.8,0,1.4,0.2,1.9,0.7s0.7,1.2,0.7,2.1c0,0.9-0.2,1.6-0.7,2c-0.5,0.5-1.1,0.7-1.9,0.7
		c-0.8,0-1.4-0.2-1.9-0.7C21.2,15,20.9,14.3,20.9,13.5z M22.1,13.4c0,0.6,0.1,1.1,0.4,1.4s0.6,0.5,1.1,0.5c0.4,0,0.8-0.2,1.1-0.5
		c0.3-0.3,0.4-0.8,0.4-1.4c0-0.6-0.1-1.1-0.4-1.4c-0.3-0.3-0.6-0.5-1.1-0.5c-0.4,0-0.8,0.2-1.1,0.5C22.2,12.3,22.1,12.8,22.1,13.4z"
		/>
	<path id="XMLID_87_" class="st2" d="M27,16.1v-5.4h2.3c0.6,0,1,0,1.2,0.1s0.5,0.3,0.6,0.5c0.2,0.2,0.2,0.5,0.2,0.9
		c0,0.4-0.1,0.7-0.4,1s-0.6,0.4-1.1,0.5c0.2,0.1,0.4,0.3,0.6,0.5s0.4,0.5,0.6,0.9l0.7,1.1h-1.3L29.7,15c-0.3-0.4-0.5-0.7-0.6-0.8
		c-0.1-0.1-0.2-0.2-0.3-0.2c-0.1,0-0.3-0.1-0.5-0.1h-0.2v2.3H27z M28.1,13h0.8c0.5,0,0.8,0,1-0.1c0.1,0,0.2-0.1,0.3-0.2
		c0.1-0.1,0.1-0.2,0.1-0.4c0-0.2,0-0.3-0.1-0.4s-0.2-0.2-0.4-0.2c-0.1,0-0.4,0-0.8,0h-0.8V13z"/>
	<path id="XMLID_90_" class="st2" d="M32.4,16.1v-5.4h4v0.9h-2.9v1.2h2.7v0.9h-2.7v1.5h3v0.9H32.4z"/>
	<path id="XMLID_92_" class="st2" d="M37.1,14.4l1.1-0.1c0.1,0.4,0.2,0.6,0.4,0.8c0.2,0.2,0.5,0.3,0.8,0.3c0.3,0,0.6-0.1,0.8-0.2
		c0.2-0.1,0.3-0.3,0.3-0.5c0-0.1,0-0.2-0.1-0.3s-0.2-0.2-0.4-0.2c-0.1,0-0.4-0.1-0.9-0.2c-0.6-0.1-1-0.3-1.2-0.5
		c-0.3-0.3-0.5-0.7-0.5-1.1c0-0.3,0.1-0.5,0.2-0.8s0.4-0.4,0.7-0.5c0.3-0.1,0.6-0.2,1.1-0.2c0.7,0,1.2,0.1,1.5,0.4
		c0.3,0.3,0.5,0.7,0.5,1.2l-1.1,0c0-0.3-0.1-0.5-0.3-0.6c-0.2-0.1-0.4-0.2-0.7-0.2c-0.3,0-0.6,0.1-0.7,0.2c-0.1,0.1-0.2,0.2-0.2,0.3
		c0,0.1,0.1,0.2,0.2,0.3c0.1,0.1,0.5,0.2,1,0.4c0.5,0.1,0.9,0.3,1.2,0.4s0.4,0.3,0.6,0.5s0.2,0.5,0.2,0.9c0,0.3-0.1,0.6-0.3,0.9
		s-0.4,0.5-0.7,0.6c-0.3,0.1-0.7,0.2-1.2,0.2c-0.7,0-1.2-0.2-1.6-0.5S37.2,15,37.1,14.4z"/>
	<path id="XMLID_94_" class="st2" d="M43.6,16.1v-4.5H42v-0.9h4.3v0.9h-1.6v4.5H43.6z"/>
	<path id="XMLID_96_" class="st2" d="M49.8,16.1l-1.3-5.4h1.1l0.8,3.7l1-3.7h1.3l0.9,3.8l0.8-3.8h1.1l-1.3,5.4h-1.1l-1.1-4l-1.1,4
		H49.8z"/>
	<path id="XMLID_98_" class="st2" d="M56.1,16.1v-5.4h4v0.9h-2.9v1.2h2.7v0.9h-2.7v1.5h3v0.9H56.1z"/>
	<path id="XMLID_100_" class="st2" d="M61.1,10.7h2.1c0.4,0,0.7,0,0.9,0.1c0.2,0,0.4,0.1,0.6,0.2c0.2,0.1,0.3,0.3,0.4,0.5
		c0.1,0.2,0.2,0.4,0.2,0.6c0,0.3-0.1,0.5-0.2,0.7c-0.1,0.2-0.3,0.4-0.5,0.5c0.3,0.1,0.6,0.3,0.8,0.5c0.2,0.2,0.3,0.5,0.3,0.8
		c0,0.2-0.1,0.5-0.2,0.7c-0.1,0.2-0.3,0.4-0.5,0.6c-0.2,0.1-0.4,0.2-0.7,0.3c-0.2,0-0.6,0-1.3,0h-1.8V10.7z M62.1,11.6v1.3h0.7
		c0.4,0,0.7,0,0.8,0c0.2,0,0.3-0.1,0.4-0.2s0.2-0.2,0.2-0.4c0-0.2,0-0.3-0.1-0.4s-0.2-0.2-0.4-0.2c-0.1,0-0.4,0-0.9,0H62.1z
		 M62.1,13.8v1.4h1c0.4,0,0.6,0,0.7,0c0.2,0,0.3-0.1,0.4-0.2s0.2-0.3,0.2-0.5c0-0.2,0-0.3-0.1-0.4c-0.1-0.1-0.2-0.2-0.3-0.2
		c-0.1-0.1-0.5-0.1-1-0.1H62.1z"/>
	<path id="XMLID_104_" class="st2" d="M66.2,14.4l1.1-0.1c0.1,0.4,0.2,0.6,0.4,0.8c0.2,0.2,0.5,0.3,0.8,0.3c0.3,0,0.6-0.1,0.8-0.2
		c0.2-0.1,0.3-0.3,0.3-0.5c0-0.1,0-0.2-0.1-0.3S69.1,14.1,69,14c-0.1,0-0.4-0.1-0.9-0.2c-0.6-0.1-1-0.3-1.2-0.5
		c-0.3-0.3-0.5-0.7-0.5-1.1c0-0.3,0.1-0.5,0.2-0.8s0.4-0.4,0.7-0.5c0.3-0.1,0.6-0.2,1.1-0.2c0.7,0,1.2,0.1,1.5,0.4
		c0.3,0.3,0.5,0.7,0.5,1.2l-1.1,0c0-0.3-0.1-0.5-0.3-0.6c-0.2-0.1-0.4-0.2-0.7-0.2c-0.3,0-0.6,0.1-0.7,0.2c-0.1,0.1-0.2,0.2-0.2,0.3
		c0,0.1,0.1,0.2,0.2,0.3c0.1,0.1,0.5,0.2,1,0.4c0.5,0.1,0.9,0.3,1.2,0.4s0.4,0.3,0.6,0.5s0.2,0.5,0.2,0.9c0,0.3-0.1,0.6-0.3,0.9
		s-0.4,0.5-0.7,0.6c-0.3,0.1-0.7,0.2-1.2,0.2c-0.7,0-1.2-0.2-1.6-0.5S66.3,15,66.2,14.4z"/>
	<path id="XMLID_106_" class="st2" d="M73.5,10.7h2c0.4,0,0.8,0,1,0.1c0.3,0.1,0.6,0.3,0.8,0.5c0.2,0.2,0.4,0.5,0.5,0.9
		C78,12.5,78,13,78,13.5c0,0.4-0.1,0.8-0.2,1.2c-0.1,0.4-0.3,0.7-0.6,1c-0.2,0.2-0.4,0.3-0.8,0.4c-0.2,0.1-0.6,0.1-1,0.1h-2V10.7z
		 M74.6,11.6v3.6h0.8c0.3,0,0.5,0,0.7-0.1c0.2,0,0.3-0.1,0.4-0.2c0.1-0.1,0.2-0.3,0.3-0.5c0.1-0.2,0.1-0.6,0.1-1s0-0.7-0.1-1
		c-0.1-0.2-0.2-0.4-0.3-0.5c-0.1-0.1-0.3-0.2-0.5-0.3c-0.2,0-0.4-0.1-0.9-0.1H74.6z"/>
	<path id="XMLID_109_" class="st2" d="M78.9,16.1v-5.4h4v0.9H80v1.2h2.7v0.9H80v1.5h3v0.9H78.9z"/>
	<path id="XMLID_111_" class="st2" d="M83.7,14.4l1.1-0.1c0.1,0.4,0.2,0.6,0.4,0.8c0.2,0.2,0.5,0.3,0.8,0.3c0.3,0,0.6-0.1,0.8-0.2
		c0.2-0.1,0.3-0.3,0.3-0.5c0-0.1,0-0.2-0.1-0.3s-0.2-0.2-0.4-0.2c-0.1,0-0.4-0.1-0.9-0.2c-0.6-0.1-1-0.3-1.2-0.5
		c-0.3-0.3-0.5-0.7-0.5-1.1c0-0.3,0.1-0.5,0.2-0.8s0.4-0.4,0.7-0.5c0.3-0.1,0.6-0.2,1.1-0.2c0.7,0,1.2,0.1,1.5,0.4
		c0.3,0.3,0.5,0.7,0.5,1.2l-1.1,0c0-0.3-0.1-0.5-0.3-0.6c-0.2-0.1-0.4-0.2-0.7-0.2c-0.3,0-0.6,0.1-0.7,0.2c-0.1,0.1-0.2,0.2-0.2,0.3
		c0,0.1,0.1,0.2,0.2,0.3c0.1,0.1,0.5,0.2,1,0.4c0.5,0.1,0.9,0.3,1.2,0.4s0.4,0.3,0.6,0.5s0.2,0.5,0.2,0.9c0,0.3-0.1,0.6-0.3,0.9
		S87.3,15.9,87,16c-0.3,0.1-0.7,0.2-1.2,0.2c-0.7,0-1.2-0.2-1.6-0.5S83.7,15,83.7,14.4z"/>
	<path id="XMLID_113_" class="st2" d="M88.9,16.1v-5.4H90v5.4H88.9z"/>
	<path id="XMLID_115_" class="st2" d="M93.5,14.1v-0.9h2.3v2.2c-0.2,0.2-0.6,0.4-1,0.6c-0.4,0.2-0.9,0.3-1.3,0.3
		c-0.6,0-1-0.1-1.5-0.4s-0.7-0.6-0.9-1c-0.2-0.4-0.3-0.9-0.3-1.4c0-0.6,0.1-1.1,0.4-1.5c0.2-0.4,0.6-0.8,1-1
		c0.3-0.2,0.8-0.3,1.3-0.3c0.7,0,1.2,0.1,1.6,0.4c0.4,0.3,0.6,0.7,0.7,1.2l-1.1,0.2c-0.1-0.3-0.2-0.5-0.4-0.6s-0.5-0.2-0.8-0.2
		c-0.5,0-0.8,0.2-1.1,0.5c-0.3,0.3-0.4,0.8-0.4,1.3c0,0.6,0.1,1.1,0.4,1.4c0.3,0.3,0.7,0.5,1.1,0.5c0.2,0,0.5,0,0.7-0.1
		c0.2-0.1,0.4-0.2,0.6-0.3v-0.7H93.5z"/>
	<path id="XMLID_117_" class="st2" d="M96.8,16.1v-5.4h1.1l2.2,3.6v-3.6h1v5.4H100l-2.2-3.5v3.5H96.8z"/>
</g>
</svg>
